#!OML:ASF E:\Steps\Project 1\Capture day 1\Session 2\Subject.ASF
:FULLY-SPECIFIED
:DEGREES
545
root 3.77405 18.0283 17.4489 -153.24 -2.58536 173.633
lowerback -23.3797 -2.29349 -5.42022
upperback 0.504975 -1.77507 0.284668
thorax 13.9493 -1.29256 2.79578
lowerneck 0.714871 -1.08373 -0.169805
upperneck 24.3008 -4.59376 1.31205
head 7.36611 -3.07874 0.0585026
rclavicle -5.56597e-015 -2.38542e-015
rhumerus -44.0382 -15.2029 -74.7085
rradius 34.4047
rwrist -5.60728
rhand -9.1544 -56.835
rfingers 7.12502
rthumb 16.7978 633.872
lclavicle -5.56597e-015 -2.38542e-015
lhumerus -31.494 -1.84342 82.009
lradius 26.8771
lwrist -1.99099
lhand -21.603 -14.0263
lfingers 7.12502
lthumb 4.79213 15.8995
rfemur -33.1663 7.98414 12.0094
rtibia 19.0269
rfoot -19.522 -5.3769
rtoes -20.6778
lfemur -35.1122 -16.1584 -22.7133
ltibia 25.3279
lfoot -14.4904 1.4938
ltoes -32.6528
546
root 3.79701 18.0296 17.4316 -153.362 -2.56172 173.612
lowerback -23.2877 -2.28204 -5.62366
upperback 0.54035 -1.70262 0.265524
thorax 13.9383 -1.2727 2.91754
lowerneck 0.686863 -1.10508 -0.153099
upperneck 24.368 -4.65804 1.40072
head 7.39617 -3.10315 0.0786789
rclavicle 1.55052e-014 -1.98785e-014
rhumerus -44.0111 -15.1008 -74.9076
rradius 34.4376
rwrist -5.89009
rhand -9.20456 -56.6754
rfingers 7.12502
rthumb 16.7495 634.027
lclavicle 1.55052e-014 -1.98785e-014
lhumerus -31.4462 -1.8153 81.9225
lradius 26.7424
lwrist -2.03109
lhand -21.6759 -14.0634
lfingers 7.12502
lthumb 4.72177 15.864
rfemur -32.9346 8.18558 12.074
rtibia 18.9532
rfoot -19.5606 -5.55686
rtoes -20.9674
lfemur -35.0243 -16.1538 -22.9366
ltibia 24.9447
lfoot -14.5264 0.860796
ltoes -30.2303
547
root 3.81785 18.0268 17.4129 -153.396 -2.38385 173.617
lowerback -23.4173 -2.22279 -5.82444
upperback 0.588902 -1.55545 0.248834
thorax 14.0609 -1.22332 3.06286
lowerneck 0.618505 -1.12909 -0.112685
upperneck 24.4627 -4.69704 1.35571
head 7.43841 -3.12247 0.0516194
rclavicle -9.34288e-015 3.45885e-014
rhumerus -44.0398 -15.2623 -74.8878
rradius 34.4708
rwrist -5.54408
rhand -8.77966 -56.3981
rfingers 7.12502
rthumb 17.1585 634.34
lclavicle -9.34288e-015 3.45885e-014
lhumerus -31.3654 -1.86412 81.9352
lradius 26.7208
lwrist -2.03751
lhand -21.7013 -13.8905
lfingers 7.12502
lthumb 4.69721 16.0374
rfemur -32.8959 8.39818 12.1168
rtibia 18.9872
rfoot -19.6281 -5.55386
rtoes -21.0373
lfemur -34.9949 -16.1342 -23.1473
ltibia 24.5516
lfoot -14.563 0.515635
ltoes -28.8438
548
root 3.83735 18.0196 17.3937 -153.233 -2.13857 173.754
lowerback -23.852 -2.12138 -5.88353
upperback 0.615587 -1.37984 0.252762
thorax 14.324 -1.15749 3.15716
lowerneck 0.558218 -1.14281 -0.11095
upperneck 24.5401 -4.73028 1.37372
head 7.47569 -3.13689 0.0524876
rclavicle 1.05356e-014 3.97569e-016
rhumerus -44.0248 -15.4552 -74.863
rradius 34.5012
rwrist -5.14092
rhand -8.12718 -56.6764
rfingers 7.12502
rthumb 17.7865 634.117
lclavicle 1.05356e-014 3.97569e-016
lhumerus -31.3397 -1.99777 81.9808
lradius 26.9056
lwrist -1.77091
lhand -21.623 -13.5495
lfingers 7.12502
lthumb 4.77277 16.3768
rfemur -33.0854 8.46278 12.3169
rtibia 19.0274
rfoot -19.6641 -5.25368
rtoes -21.0222
lfemur -35.2007 -16.0289 -23.1817
ltibia 24.2563
lfoot -14.5829 0.259583
ltoes -29.3344
549
root 3.85702 18.0139 17.3761 -153.122 -2.09897 173.848
lowerback -24.0392 -2.09342 -5.91767
upperback 0.536126 -1.33024 0.227062
thorax 14.3305 -1.13935 3.16254
lowerneck 0.678525 -1.12692 -0.0752783
upperneck 24.6276 -4.77501 1.48249
head 7.48682 -3.15911 0.0790556
rclavicle 9.34288e-015 3.57812e-015
rhumerus -44.1067 -15.4715 -74.9937
rradius 34.4623
rwrist -5.1242
rhand -7.9061 -57.1581
rfingers 7.12502
rthumb 17.9992 633.655
lclavicle 9.34288e-015 3.57812e-015
lhumerus -31.6357 -2.16007 81.9212
lradius 27.1828
lwrist -1.52574
lhand -21.584 -13.3788
lfingers 7.12502
lthumb 4.81046 16.5465
rfemur -33.1138 8.30328 12.5754
rtibia 18.9583
rfoot -19.6484 -4.93116
rtoes -20.8655
lfemur -35.3525 -15.883 -23.2705
ltibia 23.9925
lfoot -14.5004 0.0193003
ltoes -32.7257
550
root 3.87554 18.0098 17.3562 -153.124 -2.05587 173.911
lowerback -23.7353 -2.05242 -5.8915
upperback 0.244743 -1.3242 0.125503
thorax 13.8064 -1.1208 3.038
lowerneck 0.781253 -1.04644 0.119181
upperneck 25.0537 -4.7969 1.443
head 7.60828 -3.19061 0.0229462
rclavicle 3.08116e-015 -5.56597e-015
rhumerus -44.6017 -15.3266 -75.1971
rradius 34.5292
rwrist -5.33958
rhand -8.45265 -57.1645
rfingers 7.12502
rthumb 17.4733 633.601
lclavicle 3.08116e-015 -5.56597e-015
lhumerus -32.3458 -2.32108 81.7259
lradius 27.4206
lwrist -1.5532
lhand -21.8302 -13.4303
lfingers 7.12502
lthumb 4.57277 16.5004
rfemur -33.07 8.30881 12.7564
rtibia 19.012
rfoot -19.7742 -4.75528
rtoes -20.5594
lfemur -35.2953 -15.8199 -23.3706
ltibia 23.556
lfoot -14.3897 0.00396922
ltoes -36.2868
551
root 3.89191 18.009 17.3376 -153.189 -2.0133 174.012
lowerback -24.0088 -2.04517 -5.91691
upperback 0.37984 -1.27555 0.118663
thorax 14.1176 -1.10756 3.05749
lowerneck 0.741144 -1.03391 0.205564
upperneck 25.042 -4.76469 1.40292
head 7.60843 -3.16677 -0.00309871
rclavicle -4.37326e-015 -3.57812e-015
rhumerus -44.4452 -15.408 -75.3525
rradius 34.589
rwrist -5.39762
rhand -8.97291 -57.222
rfingers 7.12502
rthumb 16.9725 633.5
lclavicle -4.37326e-015 -3.57812e-015
lhumerus -32.1658 -2.13305 81.6048
lradius 27.3643
lwrist -1.82249
lhand -21.9232 -13.5893
lfingers 7.12502
lthumb 4.48296 16.3433
rfemur -32.9863 8.47628 12.9261
rtibia 19.0919
rfoot -19.9084 -4.76093
rtoes -20.3625
lfemur -35.2109 -16.0564 -23.2586
ltibia 23.2058
lfoot -14.268 -0.321981
ltoes -34.6292
